<svg width="50" height="50" viewBox="0 0 50 50" fill="none" xmlns="http://www.w3.org/2000/svg">
<rect width="50" height="50" rx="10" fill="#E3EF56"/>
<path d="M33.2636 40H35.5273C36.6727 40 37.6136 39.1136 37.75 37.9955L40 15.5227H33.1818V10H30.4955V15.5227H23.7182L24.1273 18.7136C26.4591 19.3545 28.6409 20.5136 29.95 21.7955C31.9136 23.7318 33.2636 25.7364 33.2636 29.0091V40ZM10 38.6364V37.2727H30.4955V38.6364C30.4955 39.3727 29.8818 40 29.0909 40H11.3636C10.6136 40 10 39.3727 10 38.6364ZM30.4955 29.0909C30.4955 18.1818 10 18.1818 10 29.0909H30.4955ZM10 31.8182H30.4545V34.5455H10V31.8182Z" fill="black"/>
</svg>
