<svg width="50" height="50" viewBox="0 0 50 50" fill="none" xmlns="http://www.w3.org/2000/svg">
<rect width="50" height="50" rx="10" fill="#52ACD2"/>
<path d="M14.875 13.75C14.875 12.7554 15.2701 11.8016 15.9733 11.0983C16.6766 10.3951 17.6304 10 18.625 10H29.875C30.8696 10 31.8234 10.3951 32.5266 11.0983C33.2299 11.8016 33.625 12.7554 33.625 13.75V28.75C34.6196 28.75 35.5734 29.1451 36.2766 29.8484C36.9799 30.5516 37.375 31.5054 37.375 32.5V33.4375C37.375 33.6861 37.4738 33.9246 37.6496 34.1004C37.8254 34.2762 38.0639 34.375 38.3125 34.375C38.5611 34.375 38.7996 34.2762 38.9754 34.1004C39.1512 33.9246 39.25 33.6861 39.25 33.4375V25H38.3125C38.0639 25 37.8254 24.9012 37.6496 24.7254C37.4738 24.5496 37.375 24.3111 37.375 24.0625V18.2031C37.375 17.9545 37.4738 17.716 37.6496 17.5402C37.8254 17.3644 38.0639 17.2656 38.3125 17.2656H41.1156C41.095 16.3731 41.0162 15.5894 40.7387 14.9744C40.5902 14.6168 40.3314 14.3159 40 14.1156C39.655 13.9094 39.13 13.75 38.3125 13.75C38.0639 13.75 37.8254 13.6512 37.6496 13.4754C37.4738 13.2996 37.375 13.0611 37.375 12.8125C37.375 12.5639 37.4738 12.3254 37.6496 12.1496C37.8254 11.9738 38.0639 11.875 38.3125 11.875C39.37 11.8725 40.2525 12.0825 40.96 12.505C41.6781 12.9325 42.1488 13.5381 42.4488 14.2056C43.0019 15.4338 43 16.9525 43 18.1075V24.0625C43 24.3111 42.9012 24.5496 42.7254 24.7254C42.5496 24.9012 42.3111 25 42.0625 25H41.125V33.4375C41.125 34.1834 40.8287 34.8988 40.3012 35.4262C39.7738 35.9537 39.0584 36.25 38.3125 36.25C37.5666 36.25 36.8512 35.9537 36.3238 35.4262C35.7963 34.8988 35.5 34.1834 35.5 33.4375V32.5C35.5 32.0027 35.3025 31.5258 34.9508 31.1742C34.5992 30.8225 34.1223 30.625 33.625 30.625V38.125H34.5625C34.8111 38.125 35.0496 38.2238 35.2254 38.3996C35.4012 38.5754 35.5 38.8139 35.5 39.0625C35.5 39.3111 35.4012 39.5496 35.2254 39.7254C35.0496 39.9012 34.8111 40 34.5625 40H13.9375C13.6889 40 13.4504 39.9012 13.2746 39.7254C13.0988 39.5496 13 39.3111 13 39.0625C13 38.8139 13.0988 38.5754 13.2746 38.3996C13.4504 38.2238 13.6889 38.125 13.9375 38.125H14.875V13.75ZM19.5625 13.75C19.3139 13.75 19.0754 13.8488 18.8996 14.0246C18.7238 14.2004 18.625 14.4389 18.625 14.6875V24.0625C18.625 24.3111 18.7238 24.5496 18.8996 24.7254C19.0754 24.9012 19.3139 25 19.5625 25H28.9375C29.1861 25 29.4246 24.9012 29.6004 24.7254C29.7762 24.5496 29.875 24.3111 29.875 24.0625V14.6875C29.875 14.4389 29.7762 14.2004 29.6004 14.0246C29.4246 13.8488 29.1861 13.75 28.9375 13.75H19.5625Z" fill="black"/>
</svg>
