<svg width="50" height="50" viewBox="0 0 50 50" fill="none" xmlns="http://www.w3.org/2000/svg">
<rect width="50" height="50" rx="10" fill="#5686E4"/>
<path d="M19.2798 15C16.5535 15 13.9387 16.1062 12.0109 18.0754C10.0831 20.0445 9 22.7152 9 25.5C9 28.2848 10.0831 30.9555 12.0109 32.9246C13.9387 34.8938 16.5535 36 19.2798 36H30.7202C33.4465 36 36.0613 34.8938 37.9891 32.9246C39.9169 30.9555 41 28.2848 41 25.5C41 22.7152 39.9169 20.0445 37.9891 18.0754C36.0613 16.1062 33.4465 15 30.7202 15H19.2798ZM14.7156 25.5C14.7156 25.1906 14.8359 24.8938 15.0501 24.675C15.2643 24.4562 15.5549 24.3333 15.8578 24.3333H18.1422V22C18.1422 21.6906 18.2625 21.3938 18.4767 21.175C18.691 20.9562 18.9815 20.8333 19.2844 20.8333C19.5873 20.8333 19.8779 20.9562 20.0921 21.175C20.3063 21.3938 20.4266 21.6906 20.4266 22V24.3333H22.711C23.014 24.3333 23.3045 24.4562 23.5187 24.675C23.7329 24.8938 23.8532 25.1906 23.8532 25.5C23.8532 25.8094 23.7329 26.1062 23.5187 26.325C23.3045 26.5437 23.014 26.6667 22.711 26.6667H20.4266V29C20.4266 29.3094 20.3063 29.6062 20.0921 29.825C19.8779 30.0438 19.5873 30.1667 19.2844 30.1667C18.9815 30.1667 18.691 30.0438 18.4767 29.825C18.2625 29.6062 18.1422 29.3094 18.1422 29V26.6667H15.8578C15.5549 26.6667 15.2643 26.5437 15.0501 26.325C14.8359 26.1062 14.7156 25.8094 14.7156 25.5ZM31.8395 29C31.8395 29.6188 31.5988 30.2123 31.1704 30.6499C30.742 31.0875 30.161 31.3333 29.5551 31.3333C28.9492 31.3333 28.3682 31.0875 27.9398 30.6499C27.5114 30.2123 27.2707 29.6188 27.2707 29C27.2707 28.3812 27.5114 27.7877 27.9398 27.3501C28.3682 26.9125 28.9492 26.6667 29.5551 26.6667C30.161 26.6667 30.742 26.9125 31.1704 27.3501C31.5988 27.7877 31.8395 28.3812 31.8395 29ZM31.8395 24.3333C31.2337 24.3333 30.6526 24.0875 30.2242 23.6499C29.7958 23.2123 29.5551 22.6188 29.5551 22C29.5551 21.3812 29.7958 20.7877 30.2242 20.3501C30.6526 19.9125 31.2337 19.6667 31.8395 19.6667C32.4454 19.6667 33.0264 19.9125 33.4548 20.3501C33.8832 20.7877 34.1239 21.3812 34.1239 22C34.1239 22.6188 33.8832 23.2123 33.4548 23.6499C33.0264 24.0875 32.4454 24.3333 31.8395 24.3333Z" fill="black"/>
</svg>
