<svg width="190" height="188" viewBox="0 0 190 188" fill="none" xmlns="http://www.w3.org/2000/svg">
<rect x="140" width="50" height="50" rx="10" fill="#E3EF56"/>
<path d="M173.264 40H175.527C176.673 40 177.614 39.1136 177.75 37.9955L180 15.5227H173.182V10H170.495V15.5227H163.718L164.127 18.7136C166.459 19.3545 168.641 20.5136 169.95 21.7955C171.914 23.7318 173.264 25.7364 173.264 29.0091V40ZM150 38.6364V37.2727H170.495V38.6364C170.495 39.3727 169.882 40 169.091 40H151.364C150.614 40 150 39.3727 150 38.6364ZM170.495 29.0909C170.495 18.1818 150 18.1818 150 29.0909H170.495ZM150 31.8182H170.455V34.5455H150V31.8182Z" fill="black"/>
<rect y="69" width="50" height="50" rx="10" fill="#52ACD2"/>
<path d="M14.875 82.75C14.875 81.7554 15.2701 80.8016 15.9733 80.0983C16.6766 79.3951 17.6304 79 18.625 79H29.875C30.8696 79 31.8234 79.3951 32.5266 80.0983C33.2299 80.8016 33.625 81.7554 33.625 82.75V97.75C34.6196 97.75 35.5734 98.1451 36.2766 98.8484C36.9799 99.5516 37.375 100.505 37.375 101.5V102.438C37.375 102.686 37.4738 102.925 37.6496 103.1C37.8254 103.276 38.0639 103.375 38.3125 103.375C38.5611 103.375 38.7996 103.276 38.9754 103.1C39.1512 102.925 39.25 102.686 39.25 102.438V94H38.3125C38.0639 94 37.8254 93.9012 37.6496 93.7254C37.4738 93.5496 37.375 93.3111 37.375 93.0625V87.2031C37.375 86.9545 37.4738 86.716 37.6496 86.5402C37.8254 86.3644 38.0639 86.2656 38.3125 86.2656H41.1156C41.095 85.3731 41.0162 84.5894 40.7387 83.9744C40.5902 83.6168 40.3314 83.3159 40 83.1156C39.655 82.9094 39.13 82.75 38.3125 82.75C38.0639 82.75 37.8254 82.6512 37.6496 82.4754C37.4738 82.2996 37.375 82.0611 37.375 81.8125C37.375 81.5639 37.4738 81.3254 37.6496 81.1496C37.8254 80.9738 38.0639 80.875 38.3125 80.875C39.37 80.8725 40.2525 81.0825 40.96 81.505C41.6781 81.9325 42.1488 82.5381 42.4488 83.2056C43.0019 84.4338 43 85.9525 43 87.1075V93.0625C43 93.3111 42.9012 93.5496 42.7254 93.7254C42.5496 93.9012 42.3111 94 42.0625 94H41.125V102.438C41.125 103.183 40.8287 103.899 40.3012 104.426C39.7738 104.954 39.0584 105.25 38.3125 105.25C37.5666 105.25 36.8512 104.954 36.3238 104.426C35.7963 103.899 35.5 103.183 35.5 102.438V101.5C35.5 101.003 35.3025 100.526 34.9508 100.174C34.5992 99.8225 34.1223 99.625 33.625 99.625V107.125H34.5625C34.8111 107.125 35.0496 107.224 35.2254 107.4C35.4012 107.575 35.5 107.814 35.5 108.062C35.5 108.311 35.4012 108.55 35.2254 108.725C35.0496 108.901 34.8111 109 34.5625 109H13.9375C13.6889 109 13.4504 108.901 13.2746 108.725C13.0988 108.55 13 108.311 13 108.062C13 107.814 13.0988 107.575 13.2746 107.4C13.4504 107.224 13.6889 107.125 13.9375 107.125H14.875V82.75ZM19.5625 82.75C19.3139 82.75 19.0754 82.8488 18.8996 83.0246C18.7238 83.2004 18.625 83.4389 18.625 83.6875V93.0625C18.625 93.3111 18.7238 93.5496 18.8996 93.7254C19.0754 93.9012 19.3139 94 19.5625 94H28.9375C29.1861 94 29.4246 93.9012 29.6004 93.7254C29.7762 93.5496 29.875 93.3111 29.875 93.0625V83.6875C29.875 83.4389 29.7762 83.2004 29.6004 83.0246C29.4246 82.8488 29.1861 82.75 28.9375 82.75H19.5625Z" fill="black"/>
<rect x="140" y="67" width="50" height="50" rx="10" fill="#83D65D"/>
<path fill-rule="evenodd" clip-rule="evenodd" d="M165 77C165.477 77 165.935 77.1896 166.273 77.5272C166.61 77.8648 166.8 78.3226 166.8 78.8V90.2H178.2C178.677 90.2 179.135 90.3896 179.473 90.7272C179.81 91.0648 180 91.5226 180 92C180 92.4774 179.81 92.9352 179.473 93.2728C179.135 93.6104 178.677 93.8 178.2 93.8H166.8V105.2C166.8 105.677 166.61 106.135 166.273 106.473C165.935 106.81 165.477 107 165 107C164.523 107 164.065 106.81 163.727 106.473C163.39 106.135 163.2 105.677 163.2 105.2V93.8H151.8C151.323 93.8 150.865 93.6104 150.527 93.2728C150.19 92.9352 150 92.4774 150 92C150 91.5226 150.19 91.0648 150.527 90.7272C150.865 90.3896 151.323 90.2 151.8 90.2H163.2V78.8C163.2 78.3226 163.39 77.8648 163.727 77.5272C164.065 77.1896 164.523 77 165 77Z" fill="black"/>
<rect x="70" y="138" width="50" height="50" rx="10" fill="#8D59E1"/>
<path d="M101.3 149H88.7C87.9839 149 87.2972 149.286 86.7908 149.796C86.2845 150.306 86 150.998 86 151.719V175.281C86 176.002 86.2845 176.694 86.7908 177.204C87.2972 177.714 87.9839 178 88.7 178H101.3C102.016 178 102.703 177.714 103.209 177.204C103.716 176.694 104 176.002 104 175.281V151.719C104 150.998 103.716 150.306 103.209 149.796C102.703 149.286 102.016 149 101.3 149ZM95 176.188C94.7639 176.187 94.5302 176.14 94.3122 176.049C94.0941 175.958 93.8961 175.825 93.7293 175.656C93.3924 175.317 93.2033 174.856 93.2036 174.376C93.2038 174.139 93.2504 173.903 93.3409 173.684C93.4314 173.464 93.5639 173.265 93.731 173.097C94.0683 172.757 94.5256 172.567 95.0024 172.567C95.4792 172.568 95.9363 172.759 96.2731 173.098C96.61 173.438 96.7991 173.899 96.7988 174.379C96.7985 174.859 96.6088 175.319 96.2714 175.658C95.9341 175.997 95.4768 176.188 95 176.188Z" fill="black"/>
<rect y="138" width="50" height="50" rx="10" fill="#5686E4"/>
<path d="M19.2798 153C16.5535 153 13.9387 154.106 12.0109 156.075C10.0831 158.045 9 160.715 9 163.5C9 166.285 10.0831 168.955 12.0109 170.925C13.9387 172.894 16.5535 174 19.2798 174H30.7202C33.4465 174 36.0613 172.894 37.9891 170.925C39.9169 168.955 41 166.285 41 163.5C41 160.715 39.9169 158.045 37.9891 156.075C36.0613 154.106 33.4465 153 30.7202 153H19.2798ZM14.7156 163.5C14.7156 163.191 14.8359 162.894 15.0501 162.675C15.2643 162.456 15.5549 162.333 15.8578 162.333H18.1422V160C18.1422 159.691 18.2625 159.394 18.4767 159.175C18.691 158.956 18.9815 158.833 19.2844 158.833C19.5873 158.833 19.8779 158.956 20.0921 159.175C20.3063 159.394 20.4266 159.691 20.4266 160V162.333H22.711C23.014 162.333 23.3045 162.456 23.5187 162.675C23.7329 162.894 23.8532 163.191 23.8532 163.5C23.8532 163.809 23.7329 164.106 23.5187 164.325C23.3045 164.544 23.014 164.667 22.711 164.667H20.4266V167C20.4266 167.309 20.3063 167.606 20.0921 167.825C19.8779 168.044 19.5873 168.167 19.2844 168.167C18.9815 168.167 18.691 168.044 18.4767 167.825C18.2625 167.606 18.1422 167.309 18.1422 167V164.667H15.8578C15.5549 164.667 15.2643 164.544 15.0501 164.325C14.8359 164.106 14.7156 163.809 14.7156 163.5ZM31.8395 167C31.8395 167.619 31.5988 168.212 31.1704 168.65C30.742 169.087 30.161 169.333 29.5551 169.333C28.9492 169.333 28.3682 169.087 27.9398 168.65C27.5114 168.212 27.2707 167.619 27.2707 167C27.2707 166.381 27.5114 165.788 27.9398 165.35C28.3682 164.912 28.9492 164.667 29.5551 164.667C30.161 164.667 30.742 164.912 31.1704 165.35C31.5988 165.788 31.8395 166.381 31.8395 167ZM31.8395 162.333C31.2337 162.333 30.6526 162.087 30.2242 161.65C29.7958 161.212 29.5551 160.619 29.5551 160C29.5551 159.381 29.7958 158.788 30.2242 158.35C30.6526 157.912 31.2337 157.667 31.8395 157.667C32.4454 157.667 33.0264 157.912 33.4548 158.35C33.8832 158.788 34.1239 159.381 34.1239 160C34.1239 160.619 33.8832 161.212 33.4548 161.65C33.0264 162.087 32.4454 162.333 31.8395 162.333Z" fill="black"/>
<rect width="50" height="50" rx="10" fill="#FC5D5D"/>
<path d="M39.9814 17.0588C40.0348 17.2635 39.9673 17.4894 39.8544 17.6659L36.2518 23.3271C36.1182 23.5459 35.8374 23.6659 35.6028 23.6659C35.536 23.6659 35.3489 23.6518 35.276 23.6306L32.3886 22.8824V36.2941C32.3886 36.7035 32.1146 37 31.7203 37H17.6844C17.2901 37 17.0161 36.7035 17.0161 36.2941V22.8824L14.4228 23.6376C14.122 23.7365 13.8613 23.6094 13.6942 23.3341L10.1184 17.6871C10.0048 17.5035 9.97141 17.2988 10.0249 17.0941C10.0717 16.8824 10.212 16.7412 10.3925 16.6424L17.6844 13H21.0263C21.4206 13 21.6947 13.2894 21.6947 13.7059C21.6947 15.16 23.6263 16.1906 25.0031 16.1906C26.38 16.1906 28.3784 15.1671 28.3784 13.7059C28.3784 13.2965 28.6524 13 29.0468 13H32.3886L39.6071 16.5718C39.7942 16.6706 39.9279 16.8471 39.9814 17.0588Z" fill="black"/>
<rect x="70" width="50" height="50" rx="10" fill="#D98A41"/>
<path d="M104.505 30.3333H87.5291L84.2645 17H107.769L104.505 30.3333Z" fill="black"/>
<path d="M81 13H83.2852L84.2645 17M84.2645 17L87.5291 30.3333H104.505L107.769 17H84.2645Z" fill="black"/>
<path d="M81 13H83.2852L84.2645 17M84.2645 17L87.5291 30.3333H104.505L107.769 17H84.2645Z" stroke="black" stroke-width="2" stroke-linecap="round" stroke-linejoin="round"/>
<path d="M87.5291 37C88.6109 37 89.4878 36.1046 89.4878 35C89.4878 33.8954 88.6109 33 87.5291 33C86.4473 33 85.5704 33.8954 85.5704 35C85.5704 36.1046 86.4473 37 87.5291 37Z" fill="black" stroke="black" stroke-width="2" stroke-linecap="round" stroke-linejoin="round"/>
<path d="M104.505 37C105.586 37 106.463 36.1046 106.463 35C106.463 33.8954 105.586 33 104.505 33C103.423 33 102.546 33.8954 102.546 35C102.546 36.1046 103.423 37 104.505 37Z" fill="black" stroke="black" stroke-width="2" stroke-linecap="round" stroke-linejoin="round"/>
<rect x="70" y="69" width="50" height="50" rx="10" fill="#58CCA2"/>
<path d="M103.25 91.6667V86H80V103H103.25V97.3333L111 101.111V87.8889L103.25 91.6667ZM97.4375 99.2222H83.875V89.7778H97.4375V99.2222Z" fill="black"/>
<path d="M89.6 94.5C89.6 94.8978 89.4104 95.2794 89.0728 95.5607C88.7352 95.842 88.2774 96 87.8 96C87.3226 96 86.8648 95.842 86.5272 95.5607C86.1896 95.2794 86 94.8978 86 94.5C86 94.1022 86.1896 93.7206 86.5272 93.4393C86.8648 93.158 87.3226 93 87.8 93C88.2774 93 88.7352 93.158 89.0728 93.4393C89.4104 93.7206 89.6 94.1022 89.6 94.5ZM95 94.5C95 94.8978 94.8104 95.2794 94.4728 95.5607C94.1352 95.842 93.6774 96 93.2 96C92.7226 96 92.2648 95.842 91.9272 95.5607C91.5896 95.2794 91.4 94.8978 91.4 94.5C91.4 94.1022 91.5896 93.7206 91.9272 93.4393C92.2648 93.158 92.7226 93 93.2 93C93.6774 93 94.1352 93.158 94.4728 93.4393C94.8104 93.7206 95 94.1022 95 94.5Z" fill="black"/>
<rect x="140" y="138" width="50" height="50" rx="10" fill="#E642C2"/>
<path d="M174.375 158.284V150.929H169.688V154.321L165 150L150 163.929H153.75V176H162.188V166.714H167.812V176H176.25V163.929H180L174.375 158.284Z" fill="black"/>
</svg>
