<svg width="55" height="55" viewBox="0 0 55 55" fill="none" xmlns="http://www.w3.org/2000/svg">
<rect width="54.6082" height="54.6082" rx="10" fill="black"/>
<path d="M29.7906 15.078L21.5166 41.622H12.2766L4.42264 15.078H11.9406C12.3886 16.478 12.8646 18.074 13.3686 19.866C13.8726 21.658 14.3626 23.492 14.8386 25.368C15.3426 27.216 15.7766 28.952 16.1406 30.576C16.5326 32.172 16.8266 33.502 17.0226 34.566H17.1906C17.3866 33.502 17.6666 32.172 18.0306 30.576C18.4226 28.952 18.8566 27.216 19.3326 25.368C19.8366 23.52 20.3406 21.7 20.8446 19.908C21.3486 18.116 21.8246 16.506 22.2726 15.078H29.7906ZM34.9123 41.622H28.1923V15.036H40.0363C42.6963 15.036 44.8243 15.358 46.4203 16.002C48.0163 16.646 49.1643 17.696 49.8643 19.152C50.5643 20.608 50.9143 22.582 50.9143 25.074C50.9143 27.426 50.5643 29.344 49.8643 30.828C49.1643 32.284 48.0163 33.362 46.4203 34.062C44.8243 34.762 42.6963 35.112 40.0363 35.112H34.9123V41.622ZM38.9443 20.538H34.9123V29.61H38.9443C40.9323 29.61 42.2623 29.274 42.9343 28.602C43.6063 27.93 43.9423 26.754 43.9423 25.074C43.9423 23.478 43.6063 22.33 42.9343 21.63C42.2623 20.902 40.9323 20.538 38.9443 20.538Z" fill="white"/>
</svg>
