<svg width="50" height="50" viewBox="0 0 50 50" fill="none" xmlns="http://www.w3.org/2000/svg">
<rect width="50" height="50" rx="10" fill="#83D65D"/>
<path fill-rule="evenodd" clip-rule="evenodd" d="M25 10C25.4774 10 25.9352 10.1896 26.2728 10.5272C26.6104 10.8648 26.8 11.3226 26.8 11.8V23.2H38.2C38.6774 23.2 39.1352 23.3896 39.4728 23.7272C39.8104 24.0648 40 24.5226 40 25C40 25.4774 39.8104 25.9352 39.4728 26.2728C39.1352 26.6104 38.6774 26.8 38.2 26.8H26.8V38.2C26.8 38.6774 26.6104 39.1352 26.2728 39.4728C25.9352 39.8104 25.4774 40 25 40C24.5226 40 24.0648 39.8104 23.7272 39.4728C23.3896 39.1352 23.2 38.6774 23.2 38.2V26.8H11.8C11.3226 26.8 10.8648 26.6104 10.5272 26.2728C10.1896 25.9352 10 25.4774 10 25C10 24.5226 10.1896 24.0648 10.5272 23.7272C10.8648 23.3896 11.3226 23.2 11.8 23.2H23.2V11.8C23.2 11.3226 23.3896 10.8648 23.7272 10.5272C24.0648 10.1896 24.5226 10 25 10Z" fill="black"/>
</svg>
