<svg width="50" height="50" viewBox="0 0 50 50" fill="none" xmlns="http://www.w3.org/2000/svg">
<rect width="50" height="50" rx="10" fill="#58CCA2"/>
<path d="M33.25 22.6667V17H10V34H33.25V28.3333L41 32.1111V18.8889L33.25 22.6667ZM27.4375 30.2222H13.875V20.7778H27.4375V30.2222Z" fill="black"/>
<path d="M19.6 25.5C19.6 25.8978 19.4104 26.2794 19.0728 26.5607C18.7352 26.842 18.2774 27 17.8 27C17.3226 27 16.8648 26.842 16.5272 26.5607C16.1896 26.2794 16 25.8978 16 25.5C16 25.1022 16.1896 24.7206 16.5272 24.4393C16.8648 24.158 17.3226 24 17.8 24C18.2774 24 18.7352 24.158 19.0728 24.4393C19.4104 24.7206 19.6 25.1022 19.6 25.5ZM25 25.5C25 25.8978 24.8104 26.2794 24.4728 26.5607C24.1352 26.842 23.6774 27 23.2 27C22.7226 27 22.2648 26.842 21.9272 26.5607C21.5896 26.2794 21.4 25.8978 21.4 25.5C21.4 25.1022 21.5896 24.7206 21.9272 24.4393C22.2648 24.158 22.7226 24 23.2 24C23.6774 24 24.1352 24.158 24.4728 24.4393C24.8104 24.7206 25 25.1022 25 25.5Z" fill="black"/>
</svg>
