<svg width="50" height="50" viewBox="0 0 50 50" fill="none" xmlns="http://www.w3.org/2000/svg">
<rect width="50" height="50" rx="10" fill="#FC5D5D"/>
<path d="M39.9814 17.0588C40.0348 17.2635 39.9673 17.4894 39.8544 17.6659L36.2518 23.3271C36.1182 23.5459 35.8374 23.6659 35.6028 23.6659C35.536 23.6659 35.3489 23.6518 35.276 23.6306L32.3886 22.8824V36.2941C32.3886 36.7035 32.1146 37 31.7203 37H17.6844C17.2901 37 17.0161 36.7035 17.0161 36.2941V22.8824L14.4228 23.6376C14.122 23.7365 13.8613 23.6094 13.6942 23.3341L10.1184 17.6871C10.0048 17.5035 9.97141 17.2988 10.0249 17.0941C10.0717 16.8824 10.212 16.7412 10.3925 16.6424L17.6844 13H21.0263C21.4206 13 21.6947 13.2894 21.6947 13.7059C21.6947 15.16 23.6263 16.1906 25.0031 16.1906C26.38 16.1906 28.3784 15.1671 28.3784 13.7059C28.3784 13.2965 28.6524 13 29.0468 13H32.3886L39.6071 16.5718C39.7942 16.6706 39.9279 16.8471 39.9814 17.0588Z" fill="black"/>
</svg>
