<svg width="50" height="50" viewBox="0 0 50 50" fill="none" xmlns="http://www.w3.org/2000/svg">
<rect width="50" height="50" rx="10" fill="#8D59E1"/>
<path d="M31.3 11H18.7C17.9839 11 17.2972 11.2864 16.7908 11.7963C16.2845 12.3062 16 12.9977 16 13.7188V37.2812C16 38.0023 16.2845 38.6938 16.7908 39.2037C17.2972 39.7136 17.9839 40 18.7 40H31.3C32.0161 40 32.7028 39.7136 33.2092 39.2037C33.7155 38.6938 34 38.0023 34 37.2812V13.7188C34 12.9977 33.7155 12.3062 33.2092 11.7963C32.7028 11.2864 32.0161 11 31.3 11ZM25 38.1875C24.7639 38.1873 24.5302 38.1404 24.3122 38.0493C24.0941 37.9581 23.8961 37.8247 23.7293 37.6565C23.3924 37.3168 23.2033 36.8563 23.2036 36.3762C23.2038 36.1385 23.2504 35.9032 23.3409 35.6836C23.4314 35.4641 23.5639 35.2646 23.731 35.0966C24.0683 34.7574 24.5256 34.567 25.0024 34.5673C25.4792 34.5677 25.9363 34.7587 26.2731 35.0983C26.61 35.438 26.7991 35.8986 26.7988 36.3786C26.7985 36.8587 26.6088 37.319 26.2714 37.6582C25.9341 37.9974 25.4768 38.1878 25 38.1875Z" fill="black"/>
</svg>
